<mxfile host="app.diagrams.net" modified="2023-12-11T11:49:35.037Z" agent="Mozilla/5.0 (Windows NT 10.0; Win64; x64) AppleWebKit/537.36 (KHTML, like Gecko) Chrome/118.0.0.0 Safari/537.36 OPR/104.0.0.0 (Edition Yx GX)" version="22.1.7" etag="4nxMMXXznE0DBoZMlBcI" type="github">
  <diagram name="Страница — 1" id="on1_FPbtyLPGVOazdMeT">
    <mxGraphModel>
      <root>
        <mxCell id="0" />
        <mxCell id="1" parent="0" />
      </root>
    </mxGraphModel>
  </diagram>
</mxfile>
